<?xml version="1.0" standalone="no"?>
<!DOCTYPE svg PUBLIC "-//W3C//DTD SVG 20010904//EN"
 "http://www.w3.org/TR/2001/REC-SVG-20010904/DTD/svg10.dtd">
<svg version="1.0" xmlns="http://www.w3.org/2000/svg"
 width="884.000000pt" height="884.000000pt" viewBox="0 0 884.000000 884.000000"
 preserveAspectRatio="xMidYMid meet">
<metadata>
Created by potrace 1.14, written by Peter Selinger 2001-2017
</metadata>
<g transform="translate(0.000000,884.000000) scale(0.100000,-0.100000)"
fill="#000000" stroke="none">
<path d="M4178 8825 c-2 -1 -52 -6 -113 -10 -60 -4 -118 -9 -130 -10 -11 -2
-56 -9 -100 -15 -44 -6 -91 -12 -105 -15 -14 -2 -41 -6 -60 -9 -19 -3 -46 -8
-60 -11 -14 -2 -61 -12 -105 -21 -68 -13 -132 -29 -340 -84 -53 -14 -248 -81
-339 -117 -213 -83 -434 -188 -616 -295 -450 -262 -827 -577 -1175 -983 -27
-32 -56 -68 -64 -79 -8 -12 -18 -23 -21 -26 -17 -13 -131 -171 -225 -313 -193
-292 -364 -635 -480 -969 -30 -86 -108 -344 -120 -398 -43 -194 -80 -396 -91
-500 -2 -25 -6 -58 -9 -75 -20 -154 -27 -621 -12 -820 41 -520 179 -1047 395
-1509 481 -1029 1317 -1820 2377 -2248 96 -39 396 -141 446 -152 13 -3 60 -15
104 -26 69 -17 183 -43 250 -56 11 -2 31 -6 45 -8 14 -3 41 -8 60 -10 19 -3
44 -7 55 -10 11 -2 49 -7 85 -11 36 -4 76 -9 90 -11 202 -27 879 -26 1020 1
15 3 44 7 148 20 18 2 45 6 60 9 15 3 43 8 62 11 212 35 679 165 772 216 10 5
23 9 30 9 7 1 31 9 53 20 22 11 43 19 47 20 10 0 126 53 276 127 549 267 1093
703 1472 1179 356 447 591 880 766 1412 39 117 97 328 109 394 3 13 11 55 19
93 8 39 18 88 21 110 3 22 7 47 10 55 2 8 6 35 9 60 3 25 10 81 16 125 37 283
34 836 -5 1090 -2 17 -7 53 -10 80 -11 86 -65 344 -100 480 -138 527 -395
1060 -717 1493 -84 112 -77 103 -199 247 -97 116 -332 355 -434 442 -33 28
-73 63 -90 78 -65 57 -266 206 -380 282 -237 160 -536 318 -790 418 -66 26
-129 51 -140 56 -49 22 -282 94 -405 125 -189 49 -310 72 -555 109 -16 2 -66
7 -110 11 -44 3 -106 9 -138 13 -54 7 -552 13 -559 6z"/>
</g>
</svg>
